<?xml version="1.0" encoding="UTF-8"?>
<svg version="1.1" viewBox="0 0 900 900" width="225" height="225" xmlns="http://www.w3.org/2000/svg">
<path transform="translate(438,9)" d="m0 0h27l28 2 31 4 26 5 26 7 27 9 27 11 25 12 24 14 18 11 19 14 16 13 11 9 8 8 8 7 9 9 7 8 11 12 9 11 10 13 12 17 13 21 13 24 12 25 9 23 8 24 8 30 5 26 3 21 2 23 1 21-1 37-4 37-7 36-9 32-9 25-11 26-12 24-11 19-12 19-14 19-13 16-12 14-32 32-11 9-13 11-17 12-18 12-24 14-30 15-19 8-28 10-24 7-28 6-35 5-35 3h-24l-46-4-31-5-26-6-29-9-28-11-26-12-23-12-24-15-18-13-14-11-14-12-8-7-31-31-9-11-11-13-10-14-10-15-13-21-11-20-12-26-10-26-10-31-8-36-4-26-2-21-1-18v-29l3-40 6-36 9-36 11-32 8-20 16-32 10-18 20-30 9-12 14-17 12-13 7-8 14-14 8-7 11-10 10-8 16-12 15-10 17-11 24-13 25-12 25-10 28-9 28-7 32-6 34-3z" fill="#F8AB0C"/>
<path transform="translate(503,85)" d="m0 0 12 2 7 4 6 9 1 7-2 12-5 14-9 16-8 10-6 5-7 4-5 2-8 16-9 19-1 4 9 13 48 72 3 8v8l-4 6-2 1h-9l-6-3-6-9-10-18-14-25-12-22-6-9v-2l-3 3-13 28-7 15-9 20-8 16-5 7-4 2h-7l-7-4-2-3v-10l4-9 14-26 15-28 13-24 3-4v-8l-8-13-6-10-17-1-6-7-11-19-6-11-10-18-8-14-1-5 5 2 10 16 12 20 10 15 4 3 6-3-1-6-15-28-9-17-5-8 1-3 8 9 11 16 13 19 6 9 5 1 3-2v-6l-11-18-7-11-13-21-1-5 4 2 11 15 10 15 11 16 9 14 1 2v8l-4 7 1 6 8 13v2h3l8-17 5-10-3-7v-20l4-12 8-16 6-9 4-5 10-6z" fill="#040103"/>
<path transform="translate(140,387)" d="m0 0h7l12 4 10 7 6 8 6 12 3 11 1 15-3 15-5 12-8 11-7 6-8 4-5 1h-9l-10-3-9-6-8-9-6-13-3-12v-18l4-16 6-12 8-9 14-7z" fill="#040103"/>
<path transform="translate(229,387)" d="m0 0h7l13 4 9 7 8 10 5 12 2 8v24l-2 9-4 9-6 9-8 8-10 5-4 1h-10l-11-4-6-4-5-5-7-9-5-14-2-14 1-17 3-10 6-11 9-10 8-5z" fill="#030103"/>
<path transform="translate(287,391)" d="m0 0h43l9 3 9 6 7 11 4 10 2 11v13l-2 13-6 14-7 9-8 6-10 3h-41z" fill="#040103"/>
<path transform="translate(611,391)" d="m0 0h43l7 4 7 8 5 11 1 5v20l-4 11-8 10 2 5 10 18 3 7h-22l-3-3-10-21-3-1h-10v15l-1 10h-17z" fill="#040104"/>
<path transform="translate(535,391)" d="m0 0h57l1 1v11l-1 9h-38v18h31v20l-1 1h-30v18h38v21h-57z" fill="#040104"/>
<path transform="translate(374,391)" d="m0 0h57v21h-39v18h32v10l-1 11h-31v18l39-1 1 3v19h-57l-1-1z" fill="#040104"/>
<path transform="translate(444,391)" d="m0 0h21l2 2 8 25 8 24 2 7h2l3-11 12-36 3-10 1-1h22l-12 36-20 61-1 2h-18l-4-10-26-79z" fill="#040103"/>
<path transform="translate(737,387)" d="m0 0h23l10 5 6 7 4 9 1 8-2 9-7 14-11 13-18 18v1h36v19h-63l1-17 6-8 23-23 9-12 4-10-2-8-2-4-5-3h-10l-14 7-4 1v-17l4-5z" fill="#040104"/>
<path transform="translate(836,387)" d="m0 0h4v85h20v17l-1 1h-59l-1-1v-17h20v-63l-10 3-10 1v-18z" fill="#040104"/>
<path transform="translate(39,391)" d="m0 0h57v21h-40v23h31v21h-31v34h-17l-1-2v-96z" fill="#030103"/>
<path transform="translate(527,387)" d="m0 0 11 1 56 1 1 5-1 20-4 1-11 1-2 1-16 1-1 3v3l5 1 3 2 17 1 2 1v23l-3 3-16 1-2 1h-7v7l35 1 1 5v19 4l-5 1-58-1-2-97-4 10-5 13-12 36-5 14v7l-3 6-2 7-2 3h-19l-3-1-1-6 2 1 1 3 18 1 3-11 25-76 4-11h-21l-10 31-9 26h-2l-8-21-11-35-1-1h-20l12 36 16 49-1 4-4-10v-4l-3-1-12-37-3-8-8-24-1-1v-7l1-1 24 1 3 4 5 17v3h2l6 16 1 4h3l1-4 1-3 2-1 4-8 6-19 3-7 2-3zm8 4v99h57v-21h-38v-18h30l1-1v-20h-31v-18h38l1-9v-11l-1-1z" fill="#FEC94E"/>
<path transform="translate(139,411)" d="m0 0h10l8 4 6 8 4 11v13l-5 12-4 5-9 6-5 1-8-2-8-7-5-9-2-6v-14l4-10 8-9z" fill="#F8AB0C"/>
<path transform="translate(229,411)" d="m0 0h8l7 3 6 5 5 10 1 5v13l-3 9-4 6-7 6-7 3-6-1-8-5-6-7-4-10v-16l6-12 7-7z" fill="#F8AB0C"/>
<path transform="translate(305,414)" d="m0 0h22l8 4 4 5 4 10v14l-4 9-5 7-7 4h-22l-1-1v-51z" fill="#F8AB0C"/>
<path transform="translate(504,81)" d="m0 0 12 3 8 6 4 4 1 6h2l1 8-2 11-3 11-8 15-8 11-5 5h-2l-2 4-6 4-7 2-4 6-1-3 3-5 14-7 9-10 10-17 5-13 2-7 1-10-3-9-4-5-9-4-9-1-10 4-5 4-7 10-8 16-4 10-1 4v20l3 8-10 19-4 8-3-1-8-14-2-3 1-5 3-6v-8l-9-15-8-11-8-12-12-17-6-8-2-1 6 12 9 14 12 19 6 10v6l-4 3-5-1-14-20-15-22-9-11v-3l3 1 2 5h2l5 5 3 5 4 5 2 1v-7h-2v-2l-2-1 1-2h-2v-2l-2-1-3-10v-6l5-1 6 5 7 10 6 12 5 7 5 5 9 13 7 11 1 2v10l-1 11 2 5 6-1 4-4 2-8v-28l2-9 4-9 7-14 3-1 1-5 4-5 4-2 5-5z" fill="#FDDA87"/>
<path transform="translate(340,559)" d="m0 0h11l6 1 3 5v59l-5 4-7 1h-8l-2-2v-67z" fill="#11070F"/>
<path transform="translate(139,385)" d="m0 0h10l12 5 6 4 5 4 7 10 4 9v3h2l4 10h1l1-6h2l1-5 8-16 9-10 14-7 4-1h9l12 5 11 8 8 11 4 11 1 3v9l-2-4-4-14-6-10-7-8-9-5-10-3h-7l-13 5-10 9-8 14-3 10-1 17 2 14 5 14 8 11 9 6 11 4h10l9-3 8-6 8-9 4-8 4-10 1 4-5 13-11 12-9 7-5 2-12 1-9-2-14-7-7-7-6-10-4-13-3-2-3 5-3 9-8 14-8 7h-2v2l-4 2-12 2-12-1-9-4-6-4 2-1 12 6 5 1h9l10-3 8-6 8-10 5-11 3-11 1-14-3-16-5-12-8-11-11-7-10-3h-7l-11 4-9 6-6 8-4 6-1-2 7-13 3-1v-2l16-8z" fill="#FECB4F"/>
<path transform="translate(441,559)" d="m0 0 5 2 4 15 4 17v4h2v-37l5-1 2 1v68l-1 1h-6l-9-37v-2h-2l1 12v27h-6l-1-3 1-66z" fill="#090308"/>
<path transform="translate(36,388)" d="m0 0h61l2 1-1 25-1 1-20 1h-11l-8 2 1 9 2 5 28 1 1 1v23l-1 1-25 2-5 4v27l-3 2h-20l-1-4v-99zm3 3-1 3v95l1 1h17v-34h31v-21h-31v-23h40v-21z" fill="#FDC23A"/>
<path transform="translate(608,389)" d="m0 0h32l16 1 8 5 6 7 4 8 2 10v18l-3 10-1 5-6 3 2-5 4-8 1-4v-20l-3-10-6-10-7-6-3-1-43-1v99h17v-23l1-2 11-1 4 4 9 19v2h23l-5-10-8-14-2-5 3-2 2 7 12 20 3 8-7 1-16-1-9-3-4-9-5-10-1-4h-7v25l-6 1h-13l-5-1-1-10v-57l-1-14 1-20z" fill="#FDC135"/>
<path transform="translate(378,559)" d="m0 0h19l2 1v35l-5 2 1 9 5 20v3h-7l-1-1-6-32-1-4 1-1h6v-22l-8-1v60l-1 1h-5l-1-1v-68z" fill="#030103"/>
<path transform="translate(738,385)" d="m0 0h22l10 5 6 5 5 8 1 3v15l-4 11-6 9-9 11-13 13-1 2 2 2h30l1 1v23l-3 1h-59l-7-2v-17l2-4h2l2-4 6-6 3-5 14-14 2-1 4-7 7-9 1-3h2l-3-9h-2l-4-5-7-1-10 5-6 1-1 3-3-1 4-4 14-7h10l6 4 3 6 1 6-4 10-7 9-9 10-19 19-3 5-2 17h63l-1-18h-35v-3l21-21 10-14 5-11 1-9-2-9-6-10-5-4-7-3h-23l-12 5-4 5 1-5 5-5z" fill="#FDCC5E"/>
<path transform="translate(369,388)" d="m0 0h29l32 1v2h-56l1 98h56v-18l2-2 1 8v16l-2 1h-54l-8-1-1-6-1-18-1-3 1-59z" fill="#FEC946"/>
<path transform="translate(626,559)" d="m0 0h5l1 1v27h8l1-28h6l1 1v68l-1 1h-6l-1-4 1-28h-9l-1 31h-6v-68z" fill="#11070F"/>
<path transform="translate(837,385)" d="m0 0h6v78l2 5 16 1v2h2v18l-1 3-26 2-39-1-1-1v-11l1-10 3-3 16 1v-47l-1-9-18 2-1-1v-20l9-2zm-1 2-37 8v18l15-2 5-2v63h-20v17l1 1h59l1-1v-17h-20v-85z" fill="#FECA4C"/>
<path transform="translate(486,751)" d="m0 0 8 1 5 6 2 7v17l-4 8-7 3-10-2-4-5-2-6v-14l2-9 6-5z" fill="#060205"/>
<path transform="translate(204,559)" d="m0 0h5l1 1 5 35 3 25v8l-1 1h-5l-1-5v-8l-9 1-1 11-4 1-2-1v-10l7-53z" fill="#120810"/>
<path transform="translate(481,559)" d="m0 0 5 1v24l-1 2h2l5-25 3-2h5l1 3-8 27 1 10 7 24v5l-1 1h-5l-3-9-5-18v-2h-2l1 9v19l-1 1h-5l-1-3 1-66z" fill="#070206"/>
<path transform="translate(593,389)" d="m0 0 2 1-1 24-4 1-11 1-2 1-16 1-1 3v3l5 1 3 2 17 1 2 1v23l-3 3-16 1-2 1h-7v7l35 1 1 5v19 4l-5 1-53-1-1-2 57 1-1-2v-21h-38v-18l30-1 1-20h-31v-18h38v-21z" fill="#FECB4F"/>
<path transform="translate(592,559)" d="m0 0h15l1 1v22h-6l-1-1 1-13h-10l1 52h8l1-14 5-1 1 1v20l-2 2-4 1h-10l-5-1-1-3v-64z" fill="#11070F"/>
<path transform="translate(527,387)" d="m0 0m-85 1 24 1 3 4 5 17v3h2l6 16 1 4h3l1-4 1-3 2-1 4-8 6-19 3-7 2-3h22l-1 3-20 1-10 31-9 26h-2l-8-21-11-35-1-1h-20l12 36 16 49-1 4-4-10v-4l-3-1-12-37-3-8-8-24-1-1v-7z" fill="#FECD5A"/>
<path transform="translate(432,392)" d="m0 0h1l1 23-35 2-2 1 1 4 6 2 12 3 9 1 1 1 1 12v11l-2 2-17 2-6 2h-5v6h20l14 2 1 2-2 1h-38v-18h31v-11l1-10h-32v-18h40z" fill="#FECB52"/>
<path transform="translate(402,85)" d="m0 0 5 1 4 4-1 2-7-4 6 12 9 14 12 19 6 10v6l-4 3-5-1-14-20-15-22-9-11v-3l3 1 2 5h2l5 5 3 5 4 5 2 1v-7h-2v-2l-2-1 1-2h-2v-2l-2-1-3-10v-6z" fill="#FEC43C"/>
<path transform="translate(629,415)" d="m0 0h17l5 2 3 3 2 6v7l-3 6-4 4-9 1h-10l-2-1v-26z" fill="#FEC84A"/>
<path transform="translate(162,559)" d="m0 0h17l1 1v7l-1 1-10 1-1 20h10v6l-1 2h-9v23h11l1 6-3 3h-8l-7-1-1-1v-67z" fill="#11070F"/>
<path transform="translate(370,103)" d="m0 0 6 1 8 11 9 16 8 12h2v-8l-2-4-1-7h-2v-4h2l12 22 7 13-1 5-4 3-5-2-7-9-17-28-10-16-4-2 8 16 12 21 9 16 10 17 1 4-5-5-7-10-4-8-10-19-7-12-3-5-4-6-3-5v-5z" fill="#FEC43C"/>
<path transform="translate(412,180)" d="m0 0h18l6 9 8 14 1 1v8l-8 13-13 25-12 22-13 24-3 7v10l5 5 3 1h7l5-3 7-12 14-31 13-28 5-10 2-1-2 6-6 13-11 24-9 20-1 7-5 9-6 7-5 2h-11v-2l-4-1-4-3-1-4v-8l5-12 9-16h2v-5l6-10h2l2-6 10-19 2-5h2v-5l7-10 2-4-1-9-5-7-3-5-2-2v-3l-6-2-11-2z" fill="#FEC541"/>
<path transform="translate(285,389)" d="m0 0h43l8 2 8 4 8 7 6 10 1 5h2l4 10v21l-2 10-4 10-6 10-5 6-9 6-9 3-7 1h-31l-8-1v-3l44-1 10-3 9-7 7-11 5-14 1-9v-13l-3-14-7-14-5-5-8-5-7-2-44-1-1 2z" fill="#FECC54"/>
<path transform="translate(452,751)" d="m0 0 9 1 5 5 2 9-4 8-7 7-1 4h11l2 6-1 1h-28l-1-2 7-8 8-8 4-6 1-7-1-2h-5l-7 6h-4l-1-3 3-6 4-4z" fill="#050205"/>
<path transform="translate(335,752)" d="m0 0h20l1 1v7l-14 1-1 6h14v8l-14-1v11l14-1 1 1v6l-1 1h-18l-3-2z" fill="#11070F"/>
<path transform="translate(229,411)" d="m0 0h8l7 3 6 5 5 10 1 5v13l-3 9-4 6-7 6-7 3-6-1-8-5-6-7-4-10v-16l6-12 7-7zm0 5-7 3-6 9-1 4v19l2 7 5 6 7 2 9-1 5-2v-2l4-1 2-6h2l1-5v-17l-5-10-8-6z" fill="#FECC58"/>
<path transform="translate(234,559)" d="m0 0h17l3 1v6l-7 3-1 59-1 1h-5v-61h-7l-2-4 1-4z" fill="#11070F"/>
<path transform="translate(139,411)" d="m0 0h10l8 4 6 8 4 11v13l-5 12-4 5-9 6-5 1-8-2-8-7-5-9-2-6v-14l4-10 8-9zm3 4-9 4-5 6-4 8-1 10 3 9 3 7 8 6 6 1 11-3 6-7 4-10 1-7-3-10-6-8h-2l-1-3-7-3z" fill="#FECB53"/>
<path transform="translate(549,752)" d="m0 0h15l3 3-3 4-12 1v5l10 4 3 4 1 5-2 9-5 5-8 1-7-3-4-4 1-4 12 4 5-5v-7h-7l-2 1h-6v-7l4-14z" fill="#11070F"/>
<path transform="translate(689,559)" d="m0 0h5l1 2-1 59h8l4 2-1 5-1 1-16 1-1-1v-17l1-51z" fill="#11070F"/>
<path transform="translate(344,568)" d="m0 0h8l2 1v49l-2 2h-8z" fill="#F8AB0C"/>
<path transform="translate(722,559)" d="m0 0h6l1 61h10l1 1-1 7h-17l-1-68z" fill="#120810"/>
<path transform="translate(378,559)" d="m0 0h19l2 1v35l-5 2 1 9 5 20v3h-7l-1-1-6-32-1-4 1-1h6l1-21 2-1h1v-7h-4v-2l-14 1 1 2-1 30h-1v-33z" fill="#060206"/>
<path transform="translate(522,107)" d="m0 0h2l1 4 3-3v7l-5 16-10 18-8 10-4 4-2-1 2-6-8 2 2-5 8-8 9-13 7-14z" fill="#10070E"/>
<path transform="translate(408,90)" d="m0 0 6 4 4 6 6 12 5 7 5 5 9 13 7 11 1 2v10l-1 11 2 5 6-1 4-4 2-8v-16h2v-7h1l1 14 3 8-10 19-4 8-3-1-8-14-2-3 1-5 3-6v-8l-9-15-8-11-8-12-12-17-3-5z" fill="#FDC644"/>
<path transform="translate(344,560)" d="m0 0h13l3 5v59l-9 2v1h-6l-1-6h10v-2h2l-1-49-3-1h-8l-2 4-2 1-1-12z" fill="#040104"/>
<path transform="translate(305,414)" d="m0 0h22l8 4 4 5 4 10v14l-4 9-5 7-7 4h-22l-1-1v-51zm6 2-5 4v40l2 4 1 1h15l9-5 2-3v-3h2l4-9-1-9-3-8-4-5h-2v-2h-2v-2l-11-3z" fill="#FEC744"/>
<path transform="translate(665,559)" d="m0 0h6v70h-6l-1-1z" fill="#11070F"/>
<path transform="translate(418,559)" d="m0 0 5 1v69h-7v-69z" fill="#050205"/>
<path transform="translate(663,458)" d="m0 0h1l2 7 12 20 3 8-7 1-16-1-9-3-4-9-5-10-1-4h-7v25h-14l-9-1v-1h19v-23l1-2 11-1 4 4 9 19v2h23l-5-10-8-14-2-5z" fill="#FECD58"/>
<path transform="translate(837,385)" d="m0 0h6v78l2 5 16 1 1 6-1-3h-21v-85l-41 9-1 12h-1v-14l1-1 25-5z" fill="#FED369"/>
<path transform="translate(284,388)" d="m0 0h38v1h-37l2 2v99h-3l-1-14v-84z" fill="#FEC742"/>
<path transform="translate(527,387)" d="m0 0m-22 1h22l-1 3-20 1-10 31-9 26h-2l-6-16-1-8-3-9 1-3 6 16 1 4h3l1-4 1-3 2-1 4-8 6-19 3-7z" fill="#FEC94A"/>
<path transform="translate(482,178)" d="m0 0h2l-2 5-3 10-6 12 1 8 11 16 12 16 16 24 12 19 5 9 1 11-3 7-4 2 4-7v-8l-4-10-19-28-30-45-7-10 1-4z" fill="#FDF5E3"/>
<path transform="translate(593,389)" d="m0 0 2 1-1 24-4 1-11 1-2 1-16 1-1 3v3l5 1 3 2 17 1 2 1v12l-1 6h-1v-17h-31v-18h38v-21z" fill="#FEC947"/>
<path transform="translate(206,580)" d="m0 0h1l2 12 1 14-7 3-2-3-2 1-1 8 11-1 3 1 2 5h4v8l-1 1h-5l-1-5v-8l-9 1-1 11-4 1-2-1v-10l5-37h1v13l2 1z" fill="#120810"/>
<path transform="translate(432,392)" d="m0 0h1l1 23-35 2-2 1 1 4 6 2 12 3 9 1v4l-1-2h-32v-18h40z" fill="#FECB4F"/>
<path transform="translate(633,419)" d="m0 0h12l6 7v8l-1 3-5 3h-13v-19z" fill="#F8AB0C"/>
<path transform="translate(738,385)" d="m0 0h22l10 5 6 5 5 8 1 3v15l-4 11-6 9-9 11-13 13-1 2 2 2h30l1 5-2 1v-4l-2 1h-35v-3l21-21 10-14 5-11 1-9-2-9-6-10-5-4-7-3h-23l-12 5-4 5 1-5 5-5z" fill="#FDE9BE"/>
<path transform="translate(368,763)" d="m0 0h11l2 4-2 3-9-1v3l5 2 6 4 1 2v7l-2 4-2 1h-12l-3-3v-5l2-1 4 2h6l-1-4-10-5-1-8 2-4z" fill="#070306"/>
<path transform="translate(97,389)" d="m0 0h2l-1 25-1 1-20 1h-11l-8 2 1 9 2 5 28 1 1 1v23h-3v-21l-31-1v-23h40v-21z" fill="#FEC640"/>
<path transform="translate(626,559)" d="m0 0h5l1 1v27l1 2h9v-2l4 1-1 10-2 2-1-3-2-1h-9l-1 5-4-1v-10l-1-1v-29z" fill="#11070F"/>
<path transform="translate(487,757)" d="m0 0 5 3 2 4 1 12-3 9-6 2-3-3-2-4v-17l4-5z" fill="#F8AB0C"/>
<path transform="translate(518,752)" d="m0 0h7v39l-1 1h-5l-1-1v-20l-1-11-6-1 1-5z" fill="#040104"/>
<path transform="translate(371,106)" d="m0 0 5 2 10 16 12 20 10 15 2 4-5-3v-2h-3v-2l-4 1-18-32-8-14z" fill="#10070F"/>
<path transform="translate(110,406)" d="m0 0 1 2-5 18-1 6v18l4 15 7 13 6 7 5 4 9 4 7 1v1h-8l-9-4-9-6-8-11-6-13-3-12v-15l4-18z" fill="#FEC746"/>
<path transform="translate(392,752)" d="m0 0h5l1 2v8l5 1-1 5-4 2v21l-1 1h-5l-1-1v-22l-3-1v-5l3-3z" fill="#040104"/>
<path transform="translate(528,389)" d="m0 0 3 1-2 9-5 12-4 11-16 47v7l-3 6-2 7-2 3h-19l-3-1-1-6 2 1 1 3 18 1 3-11 25-76z" fill="#FDF1D6"/>
<path transform="translate(229,385)" d="m0 0h9l12 5 11 8 8 11 4 11 1 3v9l-2-4-4-14-6-10-7-8-9-5-10-3h-7l-13 5-10 9-8 14-3 10-1 17v12l-2-4v-27l8-18 7-9 7-6 11-5z" fill="#FDF3DB"/>
<path transform="translate(440,565)" d="m0 0h1l1 22 6 2-1 3v-2h-2l1 12v27h-6l-1-3z" fill="#11070F"/>
<path transform="translate(39,391)" d="m0 0h57v21h-40v-1l38-1v-16l-5-1h-30l-19-1v97l14-1 1-11h1v13h-17l-1-2v-96z" fill="#120810"/>
<path transform="translate(441,559)" d="m0 0 5 2 4 15 2 8-1 12-1-4h-2l-1-3-5-1-1-1-1-27z" fill="#050205"/>
<path transform="translate(481,559)" d="m0 0 5 1v24l-1 2h2v2l-3-1-1-6h-1v37l2 1 1-10h1v19l-1 1h-5l-1-3 1-66z" fill="#0E060D"/>
<path transform="translate(403,88)" d="m0 0 4 2 11 15 10 15 7 10-2 4-1-3h-2l-1 2-12-19-13-21z" fill="#11070F"/>
<path transform="translate(530,100)" d="m0 0h1l1 8-2 11-3 11-8 15-8 11-5 5h-2l-2 4-6 4-7 2-4 6-1-3 3-5 14-7 9-10 10-17 5-13 2-7 1-8h1z" fill="#FEC540"/>
<path transform="translate(862,471)" d="m0 0h1v18l-1 3-26 2-36-1-1-2 3-1 57-1 1-17z" fill="#FEC741"/>
<path transform="translate(609,389)" d="m0 0h31l16 1 8 5 6 7 4 8 2 10v18l-3 10-1 5-6 3 2-5 4-8 1-4v-20l-3-10-6-10-7-6-3-1-45-1z" fill="#FDF5E2"/>
<path transform="translate(335,769)" d="m0 0 2 3 1 2 3 1v10l14-1 1 1v6l-1 1h-18l-3-2z" fill="#120810"/>
<path transform="translate(139,385)" d="m0 0h10l12 5 6 4 5 4 7 10 5 12v6l-2-1-4-12-6-10-5-6-10-6-10-3h-7l-11 4-9 6-6 8-4 6-1-2 7-13 3-1v-2l16-8z" fill="#FDF3DE"/>
<path transform="translate(184,449)" d="m0 0h1l-1 15-10 18-8 7h-2v2l-4 2-12 2-12-1-9-4-6-4 2-1 12 6 5 1h9l10-3 8-6 8-10 5-11z" fill="#FED678"/>
<path transform="translate(358,567)" d="m0 0h1v57l-8 2v1h-6l-1-6h10v-2h2l-1-47 1-3h2z" fill="#030103"/>
<path transform="translate(234,559)" d="m0 0h17l3 1v6l-7 3h-2l-2 4-2 3v-8h-8l-2-4 1-4z" fill="#040104"/>
<path transform="translate(205,560)" d="m0 0 4 1 2 18 1 3v7l-1-3h-2l-1-9-2 1-1 3-1 12-1 2-3-1 1-22 1-7h2z" fill="#040103"/>
<path transform="translate(412,180)" d="m0 0h18l6 9 8 14 1 1v8l-8 13-4 4-1-3 7-10 2-4-1-9-5-7-3-5-2-2v-3l-6-2-11-2z" fill="#FEC642"/>
<path transform="translate(549,752)" d="m0 0h15l3 3-3 4-12 1-1 6 1 3-4 3h-4l1-12 3-7z" fill="#040103"/>
<path transform="translate(625,589)" d="m0 0 2 1v10l3 1 1-5 9-1 1 2h-9l-1 31h-6z" fill="#120810"/>
<path transform="translate(369,105)" d="m0 0 3 3 7 14 12 21 9 16 10 17 1 4-5-5-7-10-4-8-10-19-7-12-3-5-4-6-3-5z" fill="#FDC33B"/>
<path transform="translate(304,415)" d="m0 0h1v45l3-1 1 5h15l7-4h2l2-6h2l1-4 3-5h1l-1 7-5 9-9 6h-22l-1-1z" fill="#FCC036"/>
<path transform="translate(285,389)" d="m0 0h43l8 2 8 4 8 7 6 10 3 8v7l-2-2-4-12-6-10-5-5-9-5-5-1-44-1-1 2z" fill="#FDE6B3"/>
<path transform="translate(388,97)" d="m0 0 5 4 11 15 10 15-2 2-1-3-5 2-8-14-5-10-5-8z" fill="#11070F"/>
<path transform="translate(328,489)" d="m0 0 8 1-2 2-11 2h-31l-8-1v-3z" fill="#FEDA83"/>
<path transform="translate(740,404)" d="m0 0h10l6 4 3 6 1 6-4 10-4 6-4 2-3 2 2-4 8-11 1-3h2l-3-9h-2l-4-5-7-1-10 5-6 1-1 3-3-1 4-4z" fill="#FEC641"/>
<path transform="translate(750,434)" d="m0 0 1 3-12 13-18 18-3 5-1 17-1 2h-3v-17l2-4h2l2-4 6-6 3-5 14-14 7-6z" fill="#FEDE91"/>
<path transform="translate(522,108)" d="m0 0h1v9l-5 12-9 15-8 10-6 4h-2l2-5 8-8 9-13 7-14z" fill="#FDEAC0"/>
<path transform="translate(597,560)" d="m0 0h7l3 2v16h-4v-9h-11l-4 2v-9l1-1z" fill="#040104"/>
<path transform="translate(592,465)" d="m0 0 3 1v23 4l-5 1-53-1-1-2 57 1-1-2v-21h-38v-1h39z" fill="#FDBF33"/>
<path transform="translate(432,469)" d="m0 0h1l1 8v15h-54l-7-1-1-4 1 2h58v-18z" fill="#FDF9ED"/>
<path transform="translate(272,456)" d="m0 0 1 4-5 13-11 12-9 7-5 2-12 1-9-2-6-3-8-6-8-11 1-2 8 11 9 6 11 4h10l9-3 8-6 8-9 4-8z" fill="#FDF2D9"/>
<path transform="translate(483,758)" d="m0 0 2 1-3 4v17l2 6 8-1 3-15h1v9l-3 7-5 3-6-2 1 3h-4l-4-6 1-6 1-8h1l2-8z" fill="#11070F"/>
<path transform="translate(534,447)" d="m0 0h1v43h58v2h-60z" fill="#FEFCF8"/>
<path transform="translate(738,385)" d="m0 0h22l10 5 6 5 5 8 1 8-2 3-2-9-6-10-5-4-7-3h-23l-12 5-4 5 1-5 5-5z" fill="#FDF1D4"/>
<path transform="translate(630,587)" d="m0 0 3 1v1h9v-2l4 1-1 10-2 2-1-3-2-1h-9l-1 5-4-1v-8z" fill="#030103"/>
<path transform="translate(408,90)" d="m0 0 6 4 4 6 6 12 5 7 5 5 9 13 3 4 1 5 1 2-3-1-7-11-13-19-11-16-6-9z" fill="#FDD884"/>
<path transform="translate(87,436)" d="m0 0h1v21l-1 1-23 2-5 4h-2v21h-1v-29h31z" fill="#FCBD2F"/>
<path transform="translate(198,605)" d="m0 0h3l2 3 11-2 2 8v8l-3-1-1-6h-14z" fill="#030103"/>
<path transform="translate(57,422)" d="m0 0h1l3 10 28 1 1 1v23h-3v-21l-31-1v-12z" fill="#FEC845"/>
<path transform="translate(775,436)" d="m0 0 1 3-9 12-5 5h-2v3l-5 5-2 4h26l-1 2h-28l-2-3 7-8 10-10z" fill="#FFC843"/>
<path transform="translate(378,559)" d="m0 0h19l2 1v35l-4 1 2-2v-14l-1-18h-4v-2l-14 1 1 2-1 30h-1v-33z" fill="#120810"/>
<path transform="translate(478,102)" d="m0 0 2 4-8 16-4 12-2 13h-2v-12l2-9 4-9 7-14z" fill="#FDD168"/>
<path transform="translate(385,388)" d="m0 0 45 1v2h-57l-1 2-1-4z" fill="#FED268"/>
<path transform="translate(468,245)" d="m0 0 3 3 15 27 9 16 8 14-1 2-8-13-9-15-7-12-8-16z" fill="#FDEECD"/>
<path transform="translate(456,234)" d="m0 0 1 2-8 17-11 24-10 23-3 3 1-6 9-19 7-16 12-26z" fill="#FDEDCB"/>
<path transform="translate(663,458)" d="m0 0h1l2 7 12 20 2 7h-21l-7-2 3-1h21l-5-10-8-14-2-5z" fill="#FDF1D8"/>
<path transform="translate(458,559)" d="m0 0 5 1-1 4-1 28h-1v-11h-2v13h-1l-1-34z" fill="#040104"/>
<path transform="translate(418,559)" d="m0 0 5 1v2l-4-1-1 16v50l3 1 1-3 1 4h-7v-69z" fill="#120810"/>
<path transform="translate(393,463)" d="m0 0 1 4 24-2h8l6 2-2 2h-38z" fill="#FDE9BB"/>
<path transform="translate(454,783)" d="m0 0 2 2h11l2 6-1 1h-28l-1-2 4-4-1 5h12z" fill="#120810"/>
<path transform="translate(354,569)" d="m0 0 2 1 1 46-1 3h-2v2h-9v-1l7-1 1-1z" fill="#120810"/>
<path transform="translate(518,752)" d="m0 0h7v39l-1 1h-5l-1-1v-14h1l1 10 3 1v-34l-8 1-2 2 1 2h-3l1-5z" fill="#120810"/>
<path transform="translate(480,579)" d="m0 0h1l1 39 2 1 1-10h1v19l-1 1h-5l-1-3z" fill="#11070F"/>
<path transform="translate(164,560)" d="m0 0 9 1 5-1 1 4-3 3h-8l-1 6-4 1v-11z" fill="#030103"/>
<path transform="translate(458,229)" d="m0 0h2l7 11 2 5 2 6 5 10-1 2-4-6-6-11-6-10-3 2v-6z" fill="#FECF5F"/>
<path transform="translate(364,783)" d="m0 0 5 2h6l2-2 1 3 3 1-1 4-2 1h-12l-3-3v-5z" fill="#120810"/>
<path transform="translate(272,416)" d="m0 0 2 3 2 7 1 16-1 14-3 8-1-4 1-37z" fill="#FEC847"/>
<path transform="translate(368,763)" d="m0 0h11l2 4-2 3-9-1-4 3 1 5-3-1-1-8 2-4z" fill="#11070F"/>
<path transform="translate(206,580)" d="m0 0h1l2 12 1 14-3 2-4-1 2-23z" fill="#F8AB0C"/>
<path transform="translate(216,422)" d="m0 0 1 2-3 7-1 5v9l4 11 5 7 9 5h6l6-2-3 3-5 2-6-1-8-5-6-7-4-10v-16z" fill="#FDEDCA"/>
<path transform="translate(503,472)" d="m0 0 1 4-3 6-2 7-2 3h-19l-3-1-1-6 2 1 1 3 18 1 3-11 2-6z" fill="#FEE6AC"/>
<path transform="translate(176,472)" d="m0 0v3l-7 9-8 7-7 3-11 1-10-2-8-4-4-4 5 2 9 4 5 1h9l10-3 8-6z" fill="#FDEDC9"/>
<path transform="translate(383,568)" d="m0 0h1v60l-1 1h-5l-1-1v-17h2v14l2 2 1-14z" fill="#120810"/>
<path transform="translate(549,752)" d="m0 0h15l3 3-3 4-12 1 2-5h-6l-1 3 1-5z" fill="#11070F"/>
<path transform="translate(247,389)" d="m0 0 5 2 10 8 7 10 4 11 1 3v9l-2-4-4-14-6-10-7-8-8-5z" fill="#FDF2DA"/>
<path transform="translate(626,610)" d="m0 0h4l1 6v12h-6v-15z" fill="#0F060E"/>
<path transform="translate(837,385)" d="m0 0h5v5l-1-3-42 9-1 12h-1v-14l1-1 25-5z" fill="#FDEFD2"/>
<path transform="translate(434,226)" d="m0 0 1 3-18 34-6 11h-2l2-5 8-15 8-16 3-7h2z" fill="#FDE9BC"/>
<path transform="translate(781,411)" d="m0 0h1v10l-4 11-6 9-9 11-9 9-2-1 12-12 10-14 5-11z" fill="#FDE9BC"/>
<path transform="translate(202,404)" d="m0 0 1 3-7 14-2 15v19l-2-4v-27l8-18z" fill="#FDEAC0"/>
<path transform="translate(452,751)" d="m0 0 9 1-1 2h-7l-6 2-1 3 10-3 3 1-1 2h-5l-7 6h-4l-1-3 3-6 4-4z" fill="#11070F"/>
<path transform="translate(482,178)" d="m0 0h2l-2 5-3 10-6 12v7l-1-2-4-1 1-4z" fill="#FEDA86"/>
<path transform="translate(485,600)" d="m0 0h2l5 16v7l-3-1-2 2-2-15z" fill="#FCBF33"/>
<path transform="translate(160,390)" d="m0 0 6 3 6 5 7 10 5 12v6l-2-1-4-12-6-10-5-6-7-5z" fill="#FDF3DE"/>
<path transform="translate(528,389)" d="m0 0 3 1-2 9-5 12-3 8-3 1 3-11z" fill="#FDF2D9"/>
<path transform="translate(369,105)" d="m0 0 3 3 7 14 10 18h-3l-8-14-3-5-4-6-3-5z" fill="#FDC33A"/>
<path transform="translate(352,560)" d="m0 0h5l3 5v59l-2-1v-56l-3-4-5-1z" fill="#11070F"/>
<path transform="translate(305,414)" d="m0 0h18v1l-14 2-1 3h-2v40h-1z" fill="#FED165"/>
<path transform="translate(360,452)" d="m0 0 1 4-3 10-8 13-8 8-9 4-2-1 4-3 9-5 6-7 7-14z" fill="#FDF0D3"/>
<path transform="translate(335,391)" d="m0 0 7 3 8 6 7 10 4 10v7l-2-2-4-12-6-10-5-5-9-5z" fill="#FDEFD2"/>
<path transform="translate(496,298)" d="m0 0 3 3 3 5 9 9 3 1h12l2-1-2 4-4 1h-8v-2l-7-2-10-13z" fill="#FED36C"/>
<path transform="translate(522,108)" d="m0 0h1v9l-5 12-5 9-3-1 2-5 7-14z" fill="#FCE1A9"/>
<path transform="translate(385,95)" d="m0 0 3 1 2 6 8 13-1 4-3-2-4-8-5-8-1-5z" fill="#FEC744"/>
<path transform="translate(224,415)" d="m0 0m-1 1m-1 1m-1 1v3l-4 7-1 4v22l-2-2-2-7v-9l3-10 4-6z" fill="#FFC843"/>
<path transform="translate(527,387)" d="m0 0m-22 1h22l-1 3-20 1-3 8-1-2z" fill="#FECA4B"/>
<path transform="translate(643,560)" d="m0 0 4 1v9l-1 9h-3l-1-2v-15z" fill="#030103"/>
<path transform="translate(464,389)" d="m0 0 4 2 4 11 5 18 3 8-1 3-3-7-9-27z" fill="#FDEDCB"/>
<path transform="translate(541,782)" d="m0 0 6 2 5 3-2 1v2l9 1-4 2-8-1-6-4-1-5z" fill="#120810"/>
<path transform="translate(593,489)" d="m0 0 3 1-1 3-5 1-53-1-1-2 57 1z" fill="#FFC843"/>
<path transform="translate(392,752)" d="m0 0h5l1 2v8l-4-1-4 3 1 3 2 4h-2v-2l-3-1v-5l3-3z" fill="#10070E"/>
<path transform="translate(796,394)" d="m0 0 3 2v17l17-3-3 3-16 2-1-1z" fill="#FEC53E"/>
<path transform="translate(511,83)" d="m0 0 7 2 10 9 2 6v12h-1l-2-12-6-9-9-4z" fill="#FDD26D"/>
<path transform="translate(463,450)" d="m0 0 2 3 8 24-1 4-4-10v-4l-3-1-4-12v-2h2z" fill="#FDDE94"/>
<path transform="translate(430,120)" d="m0 0 4 4 9 13 3 4 1 5 1 2-3-1-7-11-7-10z" fill="#FED26A"/>
<path transform="translate(674,420)" d="m0 0h2v18l-3 10-1 5-6 3 2-5 4-8 1-4z" fill="#FEECC3"/>
<path transform="translate(503,391)" d="m0 0 1 3-2 11-4 12h-3l1-7 5-16z" fill="#FEC94A"/>
<path transform="translate(427,300)" d="m0 0 1 4-5 9-6 7-4-1 6-8 5-10z" fill="#FEC43D"/>
<path transform="translate(799,470)" d="m0 0h9v1l-8 1v17l2 2-5 2-1-1v-11l1-10z" fill="#FEDD91"/>
<path transform="translate(627,560)" d="m0 0 4 1v14l-2 1-2-1v5h-1v-12z" fill="#030103"/>
<path transform="translate(430,389)" d="m0 0 4 1 1 5v19l-4-2z" fill="#FCBF32"/>
<path transform="translate(604,606)" d="m0 0 2 2 1 12-1 5h-4v-10l1-8z" fill="#030103"/>
<path transform="translate(715,471)" d="m0 0 2 2v18l-4 1v-17z" fill="#FEDC8D"/>
<path transform="translate(515,434)" d="m0 0h1v6l-3 7-3 10-5 14-2 1 2-9z" fill="#FFC843"/>
<path transform="translate(561,783)" d="m0 0 2 2-1 4-2 2h-12l2-1v-2l9-4z" fill="#040104"/>
<path transform="translate(414,261)" d="m0 0 1 2-5 9-1 6-7 12-2-1 1-5 5-8h2v-5z" fill="#FECD58"/>
<path transform="translate(738,385)" d="m0 0h14v1l-15 2-12 5-4 5 1-5 5-5z" fill="#FDF6E6"/>
<path transform="translate(396,772)" d="m0 0h1l1 5v14l-1 1h-5l-1-1v-18h1v15h3z" fill="#120810"/>
<path transform="translate(360,461)" d="m0 0 1 3-7 13-6 7-9 6-3-1 8-5 8-9 7-13z" fill="#FFC843"/>
<path transform="translate(534,447)" d="m0 0h1v43h7v1l-9 1z" fill="#FEFEFE"/>
<path transform="translate(842,385)" d="m0 0h1v29l-3 1v-28z" fill="#FEC741"/>
<path transform="translate(241,585)" d="m0 0h1l1 11h1v18l-3 2z" fill="#030103"/>
<path transform="translate(123,449)" d="m0 0 3 4 6 9 9 6 4 1-1 2-8-2-8-7-5-9z" fill="#FDF1D6"/>
<path transform="translate(432,469)" d="m0 0h1l1 8v15h-5l2-3v-18z" fill="#FCE5B5"/>
<path transform="translate(500,765)" d="m0 0h1v17l-4 8-7 3-8-1v-1l11-1 3-2 3-8v-12z" fill="#120810"/>
<path transform="translate(267,473)" d="m0 0 1 3-7 9-12 8-3-1 9-6 9-9z" fill="#FFC843"/>
<path transform="translate(86,433)" d="m0 0 4 1v23h-3v-21l-4-1z" fill="#FEC741"/>
<path transform="translate(547,391)" d="m0 0h45l1 1v11h-1l-1-9-1-1-43-1z" fill="#120810"/>
<path transform="translate(542,618)" d="m0 0 4 2-1 9-3 1-2-1v-9z" fill="#120810"/>
<path transform="translate(862,471)" d="m0 0h1v18l-1 3-3-1 1-19z" fill="#FDC84C"/>
<path transform="translate(522,107)" d="m0 0h2l1 4 3-3v7l-2 7h-4z" fill="#0F060D"/>
<path transform="translate(467,126)" d="m0 0h2l-1 8-2 13h-2v-12l1-7z" fill="#FEDA83"/>
<path transform="translate(603,605)" d="m0 0 5 1v20l-4 2 2-8-1-12-1-1-1 8h-1v-9z" fill="#120810"/>
<path transform="translate(481,604)" d="m0 0h4v12l-1 3-3-1z" fill="#030103"/>
<path transform="translate(602,568)" d="m0 0 2 1-1 9h4l-1-8h2v12h-6l-1-1z" fill="#120810"/>
<path transform="translate(294,618)" d="m0 0 4 2-1 8-5 1v-8z" fill="#120810"/>
<path transform="translate(779,471)" d="m0 0 3 3v19l-2-1 1-3h-2z" fill="#FEC63F"/>
<path transform="translate(466,467)" d="m0 0h2l4 12 2 1 1 9v2l3 1h-4l-7-19z" fill="#FEC848"/>
<path transform="translate(554,465)" d="m0 0 6 1h29l3-1 1 3h-39z" fill="#FEFEFE"/>
<path transform="translate(737,405)" d="m0 0h5v2l-10 5-6 1-1 3-3-1 4-4z" fill="#FECC54"/>
<path transform="translate(432,392)" d="m0 0h1l1 22h-28v-1l25-1z" fill="#FEFEFE"/>
<path transform="translate(229,385)" d="m0 0h9l9 4-1 2-10-3h-7l-7 1 3-3z" fill="#FDF5E4"/>
<path transform="translate(410,785)" d="m0 0h5l1 1v5l-1 1h-6l-1-4z" fill="#0D050B"/>
<path transform="translate(57,464)" d="m0 0h1l1 19v8l-4-1 1-5z" fill="#FECD56"/>
<path transform="translate(490,89)" d="m0 0h2l-1 3-5 5-5 7h-2l2-7 4-5z" fill="#FDDD94"/>
<path transform="translate(486,569)" d="m0 0h3 1v7l-3 10h-2z" fill="#FDC137"/>
<path transform="translate(218,461)" d="m0 0 4 2 9 5h6l6-2-3 3-5 2-6-1-8-5z" fill="#FDF3DD"/>
<path transform="translate(272,456)" d="m0 0 1 4-5 13-5 6-2-1 6-9z" fill="#FDF0D3"/>
<path transform="translate(489,436)" d="m0 0h1l-1 8-2 5h-2l-3-7v-5l4 4 2-2z" fill="#FDECC4"/>
<path transform="translate(260,479)" d="m0 0 2 1-8 8-8 5-7 1v-2l9-3 8-6z" fill="#FDE7B7"/>
<path transform="translate(751,461)" d="m0 0 2 1-4 5 2 2v2l-2 1h-6v-3z" fill="#FDEFD1"/>
<path transform="translate(336,753)" d="m0 0 7 1v3h-2v2h-2v3h-3z" fill="#030103"/>
<path transform="translate(43,490)" d="m0 0h12l3 2-2 1h-15v-2z" fill="#FFC843"/>
<path transform="translate(800,468)" d="m0 0 15 1v2l4 1h-19l-2-1v-2z" fill="#FEC743"/>
<path transform="translate(518,777)" d="m0 0h1l1 10 3 1 1-3h1v6l-1 1h-5l-1-1z" fill="#120810"/>
<path transform="translate(207,593)" d="m0 0h1v11l1 3-5 1-1-4 2-5h1z" fill="#FEC33B"/>
<path transform="translate(385,595)" d="m0 0 2 1 1 5v10l-3-1v-6l-1-5z" fill="#FDC33A"/>
<path transform="translate(593,389)" d="m0 0 2 1-1 24-3 1 1-3v-21z" fill="#FDC136"/>
<path transform="translate(175,477)" d="m0 0v3l-7 8-4 1v2l-4 2-3-1 9-6z" fill="#FFC843"/>
<path transform="translate(519,419)" d="m0 0 1 3-5 15-3 1 3-11 3-7z" fill="#FDEAC0"/>
<path transform="translate(530,100)" d="m0 0h1l1 8-2 11h-3l1-12h1z" fill="#FDC339"/>
<path transform="translate(481,559)" d="m0 0 5 1-1 11h-1l-2-7-1 2 2 1h-2l-1 2v-9z" fill="#120810"/>
<path transform="translate(558,775)" d="m0 0 3 1v6h2l2-3v6l-2 2-2-3-6 2 3-5z" fill="#11070F"/>
<path transform="translate(418,559)" d="m0 0 5 1v2l-4-1-2 16h-1v-17z" fill="#11070F"/>
<path transform="translate(119,394)" d="m0 0 2 3-6 7-5 8-1-2 7-13 3-1z" fill="#FDE09C"/>
<path transform="translate(470,210)" d="m0 0h2l11 16v2l-3-1-7-11-3-4z" fill="#FDEBC3"/>
<path transform="translate(397,619)" d="m0 0 2 3 1 7h-7l-1-1v-7l2 2 1 4 2 1-1-4z" fill="#11070F"/>
<path transform="translate(669,453)" d="m0 0 1 2-2 4v9l-4-4v-7l2-2z" fill="#FEC741"/>
<path transform="translate(468,245)" d="m0 0 3 3 9 16h-3l-9-17z" fill="#FDEAC0"/>
<path transform="translate(206,577)" d="m0 0h2l2 11h-2l-2-4-1 8h-1v-11z" fill="#11070F"/>
<path transform="translate(378,123)" d="m0 0h2l9 17h-3l-8-14z" fill="#FCBD2F"/>
<path transform="translate(430,120)" d="m0 0 4 4 4 6 2 6-3-1-6-9z" fill="#FDCE5E"/>
<path transform="translate(522,108)" d="m0 0h1v9l-2 6-4 1 3-10z" fill="#FCD275"/>
<path transform="translate(472,114)" d="m0 0 2 3-4 10-3-2 3-8z" fill="#FECE5D"/>
<path transform="translate(234,559)" d="m0 0h17l3 1v6h-3l1-4-5-1-13-1z" fill="#120810"/>
<path transform="translate(104,432)" d="m0 0h1l1 14 1 1v7l-2 1-1-5z" fill="#120810"/>
<path transform="translate(505,389)" d="m0 0h14v1l-13 2-3 8-1-2z" fill="#FDF5E4"/>
<path transform="translate(427,300)" d="m0 0 1 4-3 5-5 3 2-6 2-5z" fill="#FED778"/>
<path transform="translate(432,284)" d="m0 0h1l-1 7-6 12-1-4z" fill="#FDE9BE"/>
<path transform="translate(495,770)" d="m0 0h1v9l-3 7-5 3v-3l4-1z" fill="#120810"/>
<path transform="translate(394,569)" d="m0 0 2 3-2 19h-2l1-21z" fill="#120810"/>
<path transform="translate(200,471)" d="m0 0 4 4 5 7 4 3v2l-4-2-8-10z" fill="#FDEAC0"/>
<path transform="translate(717,473)" d="m0 0h1l1 11-1 5 3 1h-5z" fill="#120810"/>
<path transform="translate(720,394)" d="m0 0 2 4-1 12h-2v-11z" fill="#FED36B"/>
<path transform="translate(503,391)" d="m0 0 1 3-2 11h-3l2-11z" fill="#FEC63F"/>
<path transform="translate(837,385)" d="m0 0h5v5l-1-3-9 2h-5l1-2z" fill="#FDF0D4"/>
<path transform="translate(518,752)" d="m0 0h6l-1 2-8 1-2 2 1 2h-3l1-5z" fill="#10070E"/>
<path transform="translate(451,588)" d="m0 0 2 1 1 7-3 3h-2l-1-7h2z" fill="#11070F"/>
<path transform="translate(527,315)" d="m0 0v3l-5 2h-8l2-3 10-1z" fill="#FDC33A"/>
<path transform="translate(440,216)" d="m0 0 1 2-5 9-4 2 1-4 6-8z" fill="#FECE59"/>
<path transform="translate(496,165)" d="m0 0 2 1-7 4-7 7 1-6 3-3z" fill="#FDEBC2"/>
<path transform="translate(503,472)" d="m0 0 1 4-3 6-3-1 2-8z" fill="#FECC56"/>
<path transform="translate(445,143)" d="m0 0 3 1 3 6-1 8h-1l-2-11z" fill="#FDC238"/>
<path transform="translate(453,775)" d="m0 0v3l-4 5-3 4-3-1 6-7z" fill="#11070F"/>
<path transform="translate(171,621)" d="m0 0h6l1 5-4 1-1-4h-2z" fill="#030103"/>
<path transform="translate(500,82)" d="m0 0h3v2l-6 2v2l-5 2-2-2 6-4z" fill="#FEC94C"/>
<path transform="translate(347,753)" d="m0 0h8v5l-5-1-3-3z" fill="#030103"/>
<path transform="translate(559,774)" d="m0 0 5 1 1 4-1 5-1-2h-2z" fill="#030103"/>
<path transform="translate(178,559)" d="m0 0 2 1v7l-1 1-11 1v-2l10-1z" fill="#120810"/>
<path transform="translate(726,460)" d="m0 0v3l-7 8-1 2h-2l2-5z" fill="#FDF5E4"/>
<path transform="translate(672,443)" d="m0 0h1v5l-1 5-6 3 2-5z" fill="#FDDD95"/>
<path transform="translate(752,430)" d="m0 0h2l-1 4-2 2-6 4 2-4z" fill="#FECE5B"/>
<path transform="translate(758,421)" d="m0 0 1 3-4 7-3-2 4-7z" fill="#FEC43C"/>
</svg>
